<svg width="30" height="37" viewBox="0 0 30 37" fill="none" xmlns="http://www.w3.org/2000/svg">
<path d="M16.796 18.716C16.82 18.716 16.832 18.724 16.832 18.74L16.856 18.716C17 18.628 17.324 18.584 17.828 18.584C18.132 18.584 18.492 18.6 18.908 18.632L19.376 18.656L19.52 18.668C19.52 18.708 19.528 18.784 19.544 18.896L19.76 18.908C19.768 18.98 19.788 19.196 19.82 19.556C19.852 19.916 19.868 20.244 19.868 20.54C19.868 21.06 19.836 21.468 19.772 21.764V21.752C19.7 22.416 19.4 22.88 18.872 23.144C18.344 23.416 17.7 23.552 16.94 23.552C16.412 23.552 15.948 23.42 15.548 23.156C15.156 22.892 14.852 22.536 14.636 22.088C14.428 21.64 14.324 21.144 14.324 20.6C14.244 19.928 14.204 19.268 14.204 18.62V17.972C14.204 17.3 14.256 16.72 14.36 16.232C14.472 15.736 14.724 15.316 15.116 14.972C15.508 14.628 16.092 14.456 16.868 14.456C17.396 14.456 17.88 14.568 18.32 14.792C18.768 15.008 19.124 15.316 19.388 15.716C19.652 16.108 19.784 16.564 19.784 17.084C19.784 17.116 19.784 17.196 19.784 17.324C19.784 17.452 19.752 17.548 19.688 17.612C19.632 17.676 19.536 17.708 19.4 17.708H18.944C18.888 17.708 18.784 17.712 18.632 17.72C18.488 17.72 18.284 17.7 18.02 17.66C18.012 17.636 18.004 17.604 17.996 17.564C17.988 17.524 17.968 17.496 17.936 17.48C17.912 17.456 17.86 17.436 17.78 17.42C17.716 17.22 17.664 17.076 17.624 16.988C17.584 16.9 17.516 16.824 17.42 16.76C17.324 16.696 17.188 16.664 17.012 16.664C16.996 16.664 16.948 16.664 16.868 16.664C16.788 16.664 16.724 16.696 16.676 16.76C16.636 16.816 16.596 16.912 16.556 17.048C16.404 17.552 16.328 18.288 16.328 19.256V19.772C16.328 20.1 16.344 20.384 16.376 20.624C16.408 20.864 16.472 21.072 16.568 21.248L16.712 21.284H16.7C16.732 21.292 16.784 21.296 16.856 21.296C17.064 21.296 17.244 21.26 17.396 21.188H17.384C17.496 21.14 17.576 21.076 17.624 20.996C17.672 20.908 17.716 20.744 17.756 20.504H17.528C17.328 20.504 17.172 20.484 17.06 20.444C17.044 20.356 17.024 20.3 17 20.276C16.984 20.252 16.956 20.236 16.916 20.228C16.884 20.22 16.852 20.212 16.82 20.204C16.788 19.964 16.772 19.712 16.772 19.448C16.772 19.072 16.768 18.828 16.76 18.716H16.796ZM16.88 18.86C16.896 18.964 16.904 19.064 16.904 19.16C16.904 19.256 16.904 19.316 16.904 19.34V19.676V19.832C16.904 19.952 16.912 20.048 16.928 20.12C16.944 20.136 16.988 20.144 17.06 20.144L17.648 20.132H17.732C17.78 20.132 17.812 20.148 17.828 20.18C17.852 20.204 17.864 20.26 17.864 20.348C17.864 20.788 17.772 21.076 17.588 21.212C17.404 21.348 17.152 21.416 16.832 21.416C16.488 21.416 16.256 21.24 16.136 20.888C16.016 20.536 15.956 20.1 15.956 19.58L15.968 19.016C15.968 18.432 16 17.888 16.064 17.384C16.128 16.872 16.216 16.56 16.328 16.448C16.392 16.384 16.452 16.344 16.508 16.328C16.572 16.312 16.656 16.304 16.76 16.304L17.06 16.316C17.268 16.316 17.436 16.42 17.564 16.628C17.7 16.836 17.804 17.064 17.876 17.312C18.124 17.344 18.332 17.36 18.5 17.36C19.076 17.36 19.372 17.34 19.388 17.3L19.4 17.228C19.416 17.052 19.424 16.924 19.424 16.844C19.424 16.124 19.184 15.568 18.704 15.176C18.224 14.776 17.612 14.576 16.868 14.576C16.116 14.576 15.548 14.736 15.164 15.056C14.828 15.296 14.6 15.676 14.48 16.196C14.368 16.708 14.312 17.28 14.312 17.912L14.324 18.716C14.324 19.604 14.364 20.352 14.444 20.96C14.524 21.56 14.736 22.084 15.08 22.532C15.432 22.972 15.972 23.192 16.7 23.192C17.412 23.192 18.024 23.068 18.536 22.82C19.048 22.572 19.34 22.132 19.412 21.5C19.476 21.204 19.508 20.804 19.508 20.3C19.508 19.932 19.476 19.428 19.412 18.788L19.376 18.776L18.98 18.752C18.548 18.72 18.156 18.704 17.804 18.704C17.34 18.704 17.044 18.744 16.916 18.824L16.88 18.848V18.86Z" fill="white"/>
<path d="M16.566 23.392C16.1927 23.4573 15.894 23.49 15.67 23.49C15.2407 23.49 14.8207 23.4433 14.41 23.35C14.3727 23.238 14.34 23.168 14.312 23.14C14.284 23.112 14.2513 23.0933 14.214 23.084C14.1767 23.084 14.1487 23.0793 14.13 23.07C14.0553 22.8367 13.9527 22.4587 13.822 21.936C13.7473 21.628 13.682 21.404 13.626 21.264C13.5793 21.124 13.528 21.054 13.472 21.054C13.3973 21.054 13.332 21.0587 13.276 21.068C13.2293 21.068 13.164 21.068 13.08 21.068C13.0147 21.2453 12.9493 21.53 12.884 21.922C12.8093 22.286 12.744 22.5753 12.688 22.79C12.632 23.0047 12.5527 23.21 12.45 23.406C12.422 23.406 12.38 23.4107 12.324 23.42C12.2773 23.4293 12.2167 23.434 12.142 23.434C12.0393 23.4247 11.8247 23.42 11.498 23.42L10.896 23.406L10.154 23.392L10.196 23.112H9.874L10.07 22.076C10.3313 20.564 10.616 19.0753 10.924 17.61C11.232 16.1353 11.6193 14.6233 12.086 13.074C12.254 13.0553 12.352 13.046 12.38 13.046C12.4173 13.046 12.5387 13.0507 12.744 13.06C12.9493 13.0693 13.3787 13.0413 14.032 12.976C14.0693 13.1347 14.0927 13.2373 14.102 13.284L14.312 13.256C14.396 13.732 14.69 15.02 15.194 17.12C15.3807 17.8853 15.4787 18.2913 15.488 18.338L16.566 23.392ZM13.92 13.13C13.5093 13.1673 13.1033 13.186 12.702 13.186H12.408C12.296 13.186 12.226 13.1907 12.198 13.2C11.75 14.7027 11.3767 16.1633 11.078 17.582C10.7887 19.0007 10.4993 20.5127 10.21 22.118C10.182 22.2953 10.154 22.4633 10.126 22.622C10.098 22.7713 10.0747 22.888 10.056 22.972L10.084 22.986H10.42L11.526 23C11.6193 23.0093 11.7313 23.014 11.862 23.014C11.9647 23.014 12.0253 23.0093 12.044 23L12.086 22.986C12.17 22.846 12.2353 22.678 12.282 22.482C12.3287 22.286 12.38 22.0247 12.436 21.698C12.5293 21.1753 12.618 20.8253 12.702 20.648C12.8047 20.648 12.8887 20.648 12.954 20.648C13.0193 20.6387 13.0707 20.634 13.108 20.634H13.29L13.57 20.662C13.6447 20.83 13.7193 21.0633 13.794 21.362C13.878 21.6607 13.9293 21.8473 13.948 21.922C14.0413 22.3607 14.1347 22.7013 14.228 22.944H14.242C14.606 23.028 14.9887 23.07 15.39 23.07C15.6233 23.07 15.866 23.0467 16.118 23V22.986L15.068 18.086L13.92 13.13ZM12.604 18.996C12.716 18.1653 12.7673 17.7873 12.758 17.862C12.8327 17.2367 12.8933 16.784 12.94 16.504C12.996 16.2147 13.052 16.07 13.108 16.07C13.1733 16.07 13.2433 16.2893 13.318 16.728C13.402 17.1667 13.5093 17.9227 13.64 18.996L12.94 19.01L12.604 18.996ZM13.29 17.26L13.066 18.856H13.472L13.29 17.26Z" fill="white"/>
</svg>
